<?xml version="1.0" ?><svg height="48" id="svg2" version="1.1" viewBox="0 0 48 48" width="48" xmlns="http://www.w3.org/2000/svg" xmlns:cc="http://creativecommons.org/ns#000000" xmlns:dc="http://purl.org/dc/elements/1.1/" xmlns:rdf="http://www.w3.org/1999/02/22-rdf-syntax-ns#000000" xmlns:svg="http://www.w3.org/2000/svg"><defs id="defs2992"><linearGradient id="linearGradient4879"><stop id="stop4881" offset="0" style="stop-color:#000000ff0000;stop-opacity:0"/><stop id="stop4883" offset="1" style="stop-color:#000000ff;stop-opacity:1"/></linearGradient></defs><path d="M 11.812499,5.57595 C 7.1575845,8.12225 3.9999995,13.0523 3.9999995,18.7322 c 0,2.41463 0.5801103,4.666828 1.59375,6.6875 1.580712,-1.471298 3.5680244,-2.511878 5.7812495,-2.875 0.286952,-0.600337 0.635008,-1.167846 1,-1.71875 -1.50459,-2.337732 -2.3749995,-5.107098 -2.3749995,-8.09375 0,-2.5889 0.6579135,-5.03085 1.8124995,-7.15625 z" id="path5291" style="fill:#000000;fill-opacity:1;stroke:none"/><path d="m 24.195378,16.4154 c -5.230027,0 -9.721684,3.3502 -11.441289,8.0183 -4.7926527,0.2056 -8.6750827,4.1467 -8.7528987,8.9873 -0.07993,4.9723 3.875123,9.003 8.8466797,9.003 0.05253,0 0.103975,0 0.156302,0 l 22.007287,0 c 4.900353,-0.084 8.908265,-4.0833 8.987351,-9.003 0.07866,-4.8931 -3.751982,-8.8619 -8.612226,-8.9873 -1.56916,-4.6687 -5.960719,-8.0183 -11.191206,-8.0183 z" id="path5302" style="fill:#000000;fill-opacity:1;stroke:none"/></svg>