<?xml version="1.0" ?><svg id="Glyph" viewBox="0 0 64 64" xmlns="http://www.w3.org/2000/svg"><title/><path d="M58.88,26.92A1.23,1.23,0,0,1,60,28.16a1.11,1.11,0,0,1-1.12,1.11H57a1.11,1.11,0,0,1-1.12-1.11A1.23,1.23,0,0,1,57,26.92ZM30.88,13a1,1,0,0,1,.38-1.48,1.18,1.18,0,0,1,1.61.37l.86,1.61a1.19,1.19,0,0,1-.37,1.61,1.22,1.22,0,0,1-1.61-.5Zm-6.19,7.07a1.14,1.14,0,0,1,1.12-2l1.61.87a1.21,1.21,0,0,1,.37,1.61A1,1,0,0,1,26.3,21Zm15-10A1.11,1.11,0,0,1,40.8,9,1.14,1.14,0,0,1,42,10.07v1.86A1.14,1.14,0,0,1,40.8,13a1.11,1.11,0,0,1-1.12-1.11Zm9.17,1.86a1.18,1.18,0,0,1,1.61-.37A1,1,0,0,1,50.83,13L50,14.65a1.25,1.25,0,0,1-1.61.5A1.21,1.21,0,0,1,48,13.54Zm7.06,6.19a1.14,1.14,0,0,1,1.12,2L55.42,21a1,1,0,0,1-1.49-.37A1.1,1.1,0,0,1,54.3,19Z"/><path d="M31,25.93h-.13a7.42,7.42,0,0,0-1.73-.25,10.33,10.33,0,0,0-2-.12A14.84,14.84,0,0,0,12.42,39.31v1.24H11.19a7.34,7.34,0,0,0-5.08,2.1A7.9,7.9,0,0,0,4,47.86,7.19,7.19,0,0,0,11.31,55c14.62,0,29.36-.24,44,0a4.26,4.26,0,0,0,3.35-1.48A4.61,4.61,0,0,0,60,50.21a4.91,4.91,0,0,0-.62-2.48,4.12,4.12,0,0,0-2-1.85l-1.12-.62.62-1.12a17.1,17.1,0,0,0,.87-2.23A15.62,15.62,0,0,0,58,39.56a10,10,0,0,0-3-7.19,10.19,10.19,0,0,0-7.18-3H46.5l-1.37.25L45,28.28a7.24,7.24,0,0,0-2.36-4.21,6.27,6.27,0,0,0-4.46-1.73,7.52,7.52,0,0,0-3.34.86,7.8,7.8,0,0,0-1.24.87A18.44,18.44,0,0,1,41,29.65a17.79,17.79,0,0,1,3.6,10.65,18.91,18.91,0,0,1-.25,2.6,18.06,18.06,0,0,1-.5,2.6,1.56,1.56,0,0,1-1.73.87,1.5,1.5,0,0,1-.87-1.61,14.89,14.89,0,0,0,.5-2.23A14.1,14.1,0,0,0,42,40.3a14.53,14.53,0,0,0-3.1-9A15.38,15.38,0,0,0,31,25.93Zm-.87-2.85a1.4,1.4,0,0,0,.62.12,17.44,17.44,0,0,1,2.85-2.35,9.67,9.67,0,0,1,4.58-1.12,9.15,9.15,0,0,1,6.2,2.36,9.89,9.89,0,0,1,3,4.71h.5a11,11,0,0,1,5,1,12.4,12.4,0,0,0-17.59-9.42,14.32,14.32,0,0,0-5.08,4.71Z"/></svg>