<?xml version="1.0" ?><svg id="Glyph" viewBox="0 0 64 64" xmlns="http://www.w3.org/2000/svg"><title/><path d="M33.61,12.55a19,19,0,0,1,6,3.84,17.34,17.34,0,0,1,4.33,7.43,7.19,7.19,0,0,1,2.23.37,8,8,0,0,1,2.23.75A10.12,10.12,0,0,1,53.81,31a10.52,10.52,0,0,1-.5,8.18,1.27,1.27,0,0,1-1.73.62A1.38,1.38,0,0,1,51,38.07a7.75,7.75,0,0,0,.37-6.19,8.19,8.19,0,0,0-4.09-4.59,10.08,10.08,0,0,0-1.74-.62,2.8,2.8,0,0,0-1-.12,12.84,12.84,0,0,1,.13,2.23,19.06,19.06,0,0,1-.25,2.6,18.06,18.06,0,0,1-.5,2.6c-.12.13-.24.37-.37.5a3.65,3.65,0,0,1,1.36,1.73,4.06,4.06,0,0,1,4.22.87A3.85,3.85,0,0,1,50,41.29a3.72,3.72,0,0,1,2.11,2.23h3.22A4.72,4.72,0,0,0,58.64,42,4.83,4.83,0,0,0,60,38.69a5.77,5.77,0,0,0-.62-2.6,4.6,4.6,0,0,0-2-1.74l-1.12-.62.62-1.11a17.1,17.1,0,0,0,.87-2.23A15.62,15.62,0,0,0,58,28a10,10,0,0,0-3-7.19,10.19,10.19,0,0,0-7.18-3H46.5l-1.37.24L45,16.76a6.87,6.87,0,0,0-2.36-4.21,6.24,6.24,0,0,0-4.46-1.74,6.13,6.13,0,0,0-3.34.87,7.8,7.8,0,0,0-1.24.87Zm7.68,21.31v-.74a10.87,10.87,0,0,0,.5-2.11A14.1,14.1,0,0,0,42,28.78,15.32,15.32,0,0,0,37.7,18.25a15,15,0,0,0-5.82-3.6L31,14.41,29.15,14c-.62,0-1.24-.13-2-.13a14.69,14.69,0,0,0-10,4.09,14.5,14.5,0,0,0-4.71,9.79V28.9L11.19,29a7.29,7.29,0,0,0-5.08,2.1,7.33,7.33,0,0,0,0,10.29,7.3,7.3,0,0,0,5.2,2.1h.74a3.75,3.75,0,0,1,2.11-2.23,3.91,3.91,0,0,1,5.08-5.08,3.92,3.92,0,0,1,7.18,0,3.91,3.91,0,0,1,5.08,5.08c.25.13.38.13.62.25.13-.12.38-.12.5-.25a4.07,4.07,0,0,1,.87-4.21,4.14,4.14,0,0,1,4.21-.87,4,4,0,0,1,3.59-2.35Z"/><path d="M15.77,46.12a1.17,1.17,0,0,1-1.24-1.24,1.28,1.28,0,0,1,1.24-1.36h4L16.88,40.8a1.36,1.36,0,0,1,0-1.86,1.34,1.34,0,0,1,1.86,0l2.85,2.72V37.82a1.28,1.28,0,0,1,1.24-1.36,1.37,1.37,0,0,1,1.36,1.36v3.84l2.73-2.72a1.34,1.34,0,0,1,1.86,0,1.36,1.36,0,0,1,0,1.86l-2.73,2.72h3.84a1.38,1.38,0,0,1,1.37,1.36,1.27,1.27,0,0,1-1.37,1.24H26.05L28.78,49a1.36,1.36,0,0,1,0,1.86,1.34,1.34,0,0,1-1.86,0L24.19,48v4a1.27,1.27,0,0,1-1.36,1.24A1.18,1.18,0,0,1,21.59,52V48l-2.85,2.85a1.34,1.34,0,0,1-1.86,0,1.36,1.36,0,0,1,0-1.86l2.85-2.85Zm29.61-7.18a1.34,1.34,0,0,1,1.86,0,1.36,1.36,0,0,1,0,1.86l-2.73,2.72h3.84a1.38,1.38,0,0,1,1.37,1.36,1.27,1.27,0,0,1-1.37,1.24H44.51L47.24,49a1.36,1.36,0,0,1,0,1.86,1.34,1.34,0,0,1-1.86,0L42.65,48v4a1.27,1.27,0,0,1-1.36,1.24A1.18,1.18,0,0,1,40.05,52V48L37.2,50.83a1.33,1.33,0,0,1-1.85,0,1.34,1.34,0,0,1,0-1.86l2.84-2.85h-4A1.17,1.17,0,0,1,33,44.88a1.28,1.28,0,0,1,1.24-1.36h4L35.35,40.8a1.34,1.34,0,0,1,0-1.86,1.33,1.33,0,0,1,1.85,0l2.85,2.72V37.82a1.28,1.28,0,0,1,1.24-1.36,1.37,1.37,0,0,1,1.36,1.36v3.84Z"/></svg>